<svg width="67" height="67" viewBox="0 0 67 67" fill="none" xmlns="http://www.w3.org/2000/svg">
<path d="M33.4999 66.5C33.3599 66.5 33.22 66.4685 33.0928 66.4055L1.33219 50.6667C1.19167 50.5997 1.06941 50.4965 0.984161 50.3613C0.978309 50.3521 0.972797 50.3429 0.967286 50.3335C0.967286 50.3333 0.967455 50.3338 0.967286 50.3335C0.967107 50.3331 0.966598 50.3324 0.966428 50.3321C0.895819 50.2091 0.86379 50.0765 0.866374 49.9458V17.0539C0.863618 16.9235 0.895819 16.7907 0.966428 16.6678C0.966598 16.6674 0.966767 16.6671 0.966946 16.6668C0.966776 16.6671 0.967116 16.6667 0.966946 16.6668C0.972458 16.6574 0.978309 16.6476 0.984161 16.6383C1.06941 16.5035 1.19133 16.4003 1.33169 16.3335L33.093 0.594467C33.3472 0.468511 33.6529 0.468511 33.9074 0.594467L65.6682 16.3332C65.8088 16.4001 65.9309 16.5035 66.0163 16.6385C66.0219 16.6477 66.0274 16.657 66.033 16.6662C66.033 16.6661 66.0332 16.6664 66.033 16.6662C66.0332 16.6665 66.0336 16.6674 66.0338 16.6678C66.1045 16.7907 66.1366 16.9234 66.1338 17.0539V49.946C66.1366 50.0765 66.1045 50.2091 66.0338 50.3322C66.0284 50.3418 66.0221 50.3524 66.0161 50.3617C65.9309 50.4965 65.8089 50.5995 65.6686 50.6665L33.9072 66.4057C33.78 66.4685 33.64 66.5 33.4999 66.5ZM3.51736 49.9446L33.4999 64.8023L63.4825 49.9446L49.3862 42.6419L33.9211 50.6536C33.6596 50.7894 33.3403 50.7894 33.0785 50.6536L17.6135 42.6419L3.51736 49.9446ZM19.3736 41.7301L33.4999 49.0484L47.6262 41.7301L33.4999 34.4118L19.3736 41.7301ZM51.1462 41.7301L64.4114 48.6024V34.8579L51.1462 41.7301ZM2.58846 34.8579V48.6024L15.8537 41.7301L2.58846 34.8579ZM35.2599 33.5L49.3862 40.8183L63.5127 33.5L49.3864 26.1817L35.2599 33.5ZM3.48739 33.5L17.6137 40.8183L31.7401 33.5L17.6139 26.1817L3.48739 33.5ZM19.3736 25.2699L33.4999 32.5882L47.6262 25.2699L33.4999 17.9515L19.3736 25.2699ZM51.1462 25.2699L64.4114 32.1421V18.3976L51.1462 25.2699ZM2.58846 18.3976V32.1421L15.8537 25.2699L2.58846 18.3976ZM33.4999 16.2445C33.6453 16.2445 33.7904 16.2785 33.9211 16.3462L49.3862 24.3581L63.4825 17.0554L33.4999 2.19755L3.51736 17.0554L17.6137 24.3581L33.0787 16.3462C33.2096 16.2785 33.3548 16.2445 33.4999 16.2445Z" fill="#34944F"/>
</svg>
