<svg width="66" height="69" viewBox="0 0 66 69" fill="none" xmlns="http://www.w3.org/2000/svg">
<path d="M0 34.5C0 16.0091 14.966 0.965698 33.3618 0.965698C33.8057 0.965698 34.1656 1.32755 34.1656 1.77375V67.2264C34.1656 67.6727 33.8057 68.0344 33.3618 68.0344C14.966 68.0344 0 52.991 0 34.5ZM32.5579 2.59199C15.4179 3.02139 1.60776 17.17 1.60776 34.5C1.60776 51.8301 15.4179 65.9787 32.5579 66.4083V59.2945C19.3203 58.8664 8.68214 47.9085 8.68214 34.5C8.68214 21.0918 19.3203 10.1337 32.5579 9.70567V2.59199ZM32.5579 11.3227C20.2072 11.7505 10.2899 21.9832 10.2899 34.5C10.2899 47.0169 20.2072 57.2496 32.5579 57.6774V52.0166C23.3106 51.5928 15.9171 43.8981 15.9171 34.5C15.9171 25.1022 23.3106 17.4074 32.5579 16.9837V11.3227ZM32.5579 18.6017C24.1977 19.024 17.525 25.9937 17.525 34.5002C17.525 43.0068 24.1977 49.9763 32.5579 50.3988V46.1894C26.5042 45.773 21.7053 40.6893 21.7053 34.5002C21.7053 28.3113 26.5042 23.2276 32.5579 22.8108V18.6017ZM32.5579 24.4313C27.3914 24.8443 23.313 29.2024 23.313 34.5C23.313 39.7977 27.3914 44.1559 32.5579 44.5688V41.8094C28.9007 41.4059 26.0463 38.2818 26.0463 34.5C26.0463 30.7183 28.9007 27.5944 32.5579 27.1909V24.4313ZM32.5579 28.8196C29.7898 29.2135 27.6541 31.6108 27.6541 34.5C27.6541 37.3894 29.7898 39.7867 32.5579 40.1805V28.8196ZM40.5164 58.4993V10.5008C40.5164 10.0545 40.8764 9.69273 41.3204 9.69273C41.7642 9.69273 42.1243 10.0545 42.1243 10.5008V58.4993C42.1243 58.9457 41.7642 59.3074 41.3204 59.3074C40.8764 59.3074 40.5164 58.9457 40.5164 58.4993ZM48.475 51.2268V17.7733C48.475 17.3271 48.8351 16.9653 49.2789 16.9653C49.7228 16.9653 50.0829 17.3271 50.0829 17.7733V51.2268C50.0829 51.6732 49.7228 52.0349 49.2789 52.0349C48.8351 52.0349 48.475 51.6732 48.475 51.2268ZM56.4336 45.4088V23.5913C56.4336 23.145 56.7936 22.7832 57.2375 22.7832C57.6814 22.7832 58.0414 23.145 58.0414 23.5913V45.4088C58.0414 45.8552 57.6814 46.2169 57.2375 46.2169C56.7936 46.2169 56.4336 45.8552 56.4336 45.4088ZM64.3922 41.0453V27.9548C64.3922 27.5086 64.7522 27.1468 65.1961 27.1468C65.64 27.1468 66 27.5086 66 27.9548V41.0453C66 41.4917 65.64 41.8533 65.1961 41.8533C64.7522 41.8533 64.3922 41.4917 64.3922 41.0453Z" fill="#34944F"/>
</svg>
